<?xml version="1.0" encoding="UTF-8"?>
<svg version="1.1" xmlns="http://www.w3.org/2000/svg" width="1300" height="500">
<path d="M0 0 C2.41930199 2.16902937 2.67870868 4.23912569 2.90234375 7.41015625 C2.64262591 13.81276551 -0.21511583 18.53565025 -4.8359375 22.83203125 C-12.21354687 28.45715201 -20.85278066 32.62433472 -29.1875 36.625 C-28.83816406 37.31464844 -28.48882812 38.00429687 -28.12890625 38.71484375 C-25.1599502 44.84620059 -23.52234222 49.81654148 -23.1875 56.625 C-22.12789063 56.7796875 -22.12789063 56.7796875 -21.046875 56.9375 C-10.20949327 59.54320927 -0.88207145 68.1238265 5.375 77.0625 C6.8125 79.625 6.8125 79.625 6.8125 81.625 C20.42463687 70.97550468 33.12200903 56.11319133 35.8125 38.625 C36.30734451 33.77743526 36.63403666 28.92537562 36.9375 24.0625 C37.06705078 22.12020508 37.06705078 22.12020508 37.19921875 20.13867188 C37.40983017 16.96779991 37.61409213 13.79665499 37.8125 10.625 C40.2875 9.635 40.2875 9.635 42.8125 8.625 C45.67339807 10.9091953 46.72758215 12.05216431 47.2734375 15.734375 C46.76821691 37.13735634 43.84224791 55.10147266 29.625 72 C29.1619043 72.55252441 28.69880859 73.10504883 28.22167969 73.67431641 C25.81208283 76.48879781 23.3547715 79.09434818 20.5859375 81.55859375 C16.43172786 85.35117609 12.76246793 88.86438178 12.0078125 94.65234375 C11.91804853 99.0033748 12.45585059 102.90136746 14.8125 106.625 C18.83697056 110.1595677 23.95535504 111.89344699 28.88330078 113.81445312 C38.45256359 117.83494825 45.2535768 126.8576807 49.3515625 136.09375 C53.6095378 147.54795256 55.14466707 157.93688528 55.0625 170.125 C55.07023438 171.30320312 55.07796875 172.48140625 55.0859375 173.6953125 C55.08335937 174.81679688 55.08078125 175.93828125 55.078125 177.09375 C55.07586914 178.10888672 55.07361328 179.12402344 55.07128906 180.16992188 C54.8125 182.625 54.8125 182.625 52.8125 184.625 C50.1875 184.75 50.1875 184.75 47.8125 184.625 C45.9584889 181.45651949 45.55382706 179.09345574 45.50390625 175.44140625 C45.46958496 173.93537842 45.46958496 173.93537842 45.43457031 172.39892578 C45.41491211 171.33915527 45.39525391 170.27938477 45.375 169.1875 C44.88727976 153.57812971 42.87646566 139.37549023 31.83984375 127.4453125 C26.86329537 122.97696656 21.0260817 119.99102577 14.8125 117.625 C14.82410156 118.38941406 14.83570313 119.15382813 14.84765625 119.94140625 C14.85667969 121.01261719 14.86570313 122.08382812 14.875 123.1875 C14.88917969 124.39148438 14.90335938 125.59546875 14.91796875 126.8359375 C14.8125 130.625 14.8125 130.625 14.23828125 133.9140625 C12.35019249 145.56397187 16.73227151 154.5885406 21.19921875 165.1953125 C32.17717132 191.41629379 31.32321398 216.55722253 20.69067383 242.69799805 C19.8125 244.625 19.8125 244.625 18.8125 245.625 C17.14632885 245.66563832 15.47861905 245.667721 13.8125 245.625 C11.97092989 241.82707814 11.62381217 239.81241359 12.859375 235.78125 C13.26047485 234.41637451 13.26047485 234.41637451 13.66967773 233.02392578 C13.96430908 232.06728027 14.25894043 231.11063477 14.5625 230.125 C15.1362011 228.13415823 15.70524721 226.14196889 16.26953125 224.1484375 C16.67679443 222.71322754 16.67679443 222.71322754 17.09228516 221.24902344 C22.74151203 200.66668769 18.12429725 181.71086672 9.8125 162.625 C9.52640869 163.52516846 9.24031738 164.42533691 8.94555664 165.3527832 C0.95495126 190.38637191 -7.17247197 214.0711321 -24.1875 234.625 C-24.84234375 235.43839844 -25.4971875 236.25179687 -26.171875 237.08984375 C-33.63705326 245.93090341 -42.94373531 253.35408664 -54.1875 256.625 C-54.77273437 256.80417969 -55.35796875 256.98335938 -55.9609375 257.16796875 C-65.68191279 259.16332684 -75.33620868 257.94835801 -84.1875 253.625 C-84.99316406 253.24730469 -85.79882812 252.86960937 -86.62890625 252.48046875 C-113.87377227 238.00526706 -128.22518446 203.27228525 -136.79296875 175.51953125 C-137.97891703 171.56903867 -139.10268874 167.60437977 -140.1875 163.625 C-141.4898599 166.93339237 -142.77736413 170.24738308 -144.0625 173.5625 C-144.42730469 174.48869141 -144.79210937 175.41488281 -145.16796875 176.36914062 C-152.46404898 195.27262122 -151.0128305 211.92733257 -145.82910156 231.23144531 C-145.61737305 232.02131836 -145.40564453 232.81119141 -145.1875 233.625 C-144.96288086 234.45354492 -144.73826172 235.28208984 -144.50683594 236.13574219 C-144.30606445 236.93399414 -144.10529297 237.73224609 -143.8984375 238.5546875 C-143.6207251 239.62178955 -143.6207251 239.62178955 -143.33740234 240.71044922 C-143.1875 242.625 -143.1875 242.625 -145.1875 245.625 C-147.625 246.125 -147.625 246.125 -150.1875 245.625 C-153.15672325 241.61964155 -154.41422996 237.22947554 -155.75 232.5 C-155.96615967 231.73864746 -156.18231934 230.97729492 -156.4050293 230.19287109 C-162.57567272 208.05929655 -161.04283742 188.83210725 -152.37109375 167.625 C-152.12173569 167.01248886 -151.87237762 166.39997772 -151.61546326 165.76890564 C-150.36825765 162.71613017 -149.0914899 159.6872498 -147.75854492 156.67016602 C-144.41024428 148.71688629 -143.83658639 143.09077544 -145.1875 134.625 C-145.31280106 133.06917847 -145.42012655 131.51173398 -145.50390625 129.953125 C-145.54580078 129.26992187 -145.58769531 128.58671875 -145.63085938 127.8828125 C-145.67017578 127.22023438 -145.70949219 126.55765625 -145.75 125.875 C-145.79318359 125.16601562 -145.83636719 124.45703125 -145.88085938 123.7265625 C-145.98426504 122.02611374 -146.0860702 120.32556776 -146.1875 118.625 C-158.73856167 125.30671406 -165.34082462 131.78727144 -170.12890625 145.27734375 C-172.57337728 154.07507765 -172.62914601 162.95838831 -172.72167969 172.04321289 C-172.74133789 173.0924292 -172.76099609 174.14164551 -172.78125 175.22265625 C-172.79188477 176.63816772 -172.79188477 176.63816772 -172.80273438 178.08227539 C-173.24886924 181.03055881 -174.23074968 182.41912037 -176.1875 184.625 C-178.1675 184.295 -180.1475 183.965 -182.1875 183.625 C-187.14896883 168.74059351 -181.82330569 146.19893482 -175.5625 132.1875 C-169.29602646 120.73822879 -159.54282876 113.74054632 -147.5 109.25 C-146.736875 109.04375 -145.97375 108.8375 -145.1875 108.625 C-145.13851562 107.92375 -145.08953125 107.2225 -145.0390625 106.5 C-144.67501951 101.88042002 -144.29753414 97.65447627 -142.8125 93.25 C-142.60625 92.05375 -142.4 90.8575 -142.1875 89.625 C-144.33310619 87.14914665 -144.33310619 87.14914665 -147.1875 84.625 C-165.85376554 65.58196072 -174.0263318 48.59196825 -174.4375 21.75 C-174.45901123 20.91654053 -174.48052246 20.08308105 -174.50268555 19.22436523 C-174.53503342 13.21437369 -174.53503342 13.21437369 -172.671875 10.0546875 C-172.18203125 9.58289063 -171.6921875 9.11109375 -171.1875 8.625 C-166.3125 9.5 -166.3125 9.5 -165.1875 10.625 C-165.00613353 12.76197838 -164.88692501 14.90427317 -164.79296875 17.046875 C-164.72401491 18.39717174 -164.65432732 19.74743116 -164.58398438 21.09765625 C-164.47802143 23.2164302 -164.37665836 25.33498321 -164.28881836 27.45458984 C-163.29786864 50.71292504 -153.62178606 64.7208522 -137.1875 80.625 C-136.92839844 79.89023438 -136.66929687 79.15546875 -136.40234375 78.3984375 C-131.74413223 67.76393531 -120.45334714 61.09985645 -110.1875 56.625 C-109.5275 56.625 -108.8675 56.625 -108.1875 56.625 C-108.11273438 55.95855469 -108.03796875 55.29210937 -107.9609375 54.60546875 C-106.86850693 46.94774468 -104.22260843 41.18522346 -100.1875 34.625 C-101.05761719 34.35945313 -101.92773438 34.09390625 -102.82421875 33.8203125 C-112.41980004 30.41003622 -124.63161432 23.61999259 -129.25 14.0625 C-130.25817699 10.36585105 -130.55407038 7.43733198 -130.1875 3.625 C-129.5275 2.635 -128.8675 1.645 -128.1875 0.625 C-125.125 0.375 -125.125 0.375 -122.1875 0.625 C-120.65120779 2.16129221 -121.03638974 3.74180702 -120.9375 5.875 C-120.57034977 9.29273672 -120.30262518 10.47030054 -118.1875 13.3125 C-111.26883008 18.6456414 -103.71469437 24.26155715 -95.1875 26.625 C-91.82719251 25.52229716 -89.08296653 23.19105943 -86.1875 21.1875 C-77.83264716 15.87279281 -69.23351837 13.67932588 -59.34765625 14.8515625 C-52.16109287 16.61044946 -44.65341568 19.96996898 -39.58984375 25.421875 C-37.44558467 27.87545881 -37.44558467 27.87545881 -34.8671875 27.671875 C-31.24369992 26.2562851 -27.77927924 24.63754945 -24.3125 22.875 C-23.63058594 22.53984375 -22.94867188 22.2046875 -22.24609375 21.859375 C-14.22832539 17.86409567 -14.22832539 17.86409567 -7.8125 11.8125 C-7.19566378 9.65357325 -7.00547362 7.73125744 -6.8125 5.5 C-6.1875 1.625 -6.1875 1.625 -4.375 0 C-2.1875 -0.375 -2.1875 -0.375 0 0 Z " fill="#000000" transform="translate(218.1875,123.375)"/>
<path d="M0 0 C1.57296354 3.14592708 1.14191671 6.51192354 1.1328125 9.96484375 C1.13424759 11.1485128 1.13424759 11.1485128 1.13571167 12.35609436 C1.13639266 14.02637817 1.13454398 15.69666462 1.13037109 17.36694336 C1.12502878 19.92372596 1.13031511 22.48033231 1.13671875 25.03710938 C1.13605781 26.65885455 1.13477633 28.28059962 1.1328125 29.90234375 C1.13483673 30.66804184 1.13686096 31.43373993 1.13894653 32.22264099 C1.1248605 35.41357733 1.01652138 37.95043585 0 41 C-0.67229486 48.958095 -0.59540838 59.80918324 3 67 C6.42298219 65.5775886 8.06230951 63.9625459 10.20703125 60.96484375 C10.79419922 60.15466797 11.38136719 59.34449219 11.98632812 58.50976562 C12.58896484 57.66091797 13.19160156 56.81207031 13.8125 55.9375 C21.16070677 45.72052766 21.16070677 45.72052766 24.75390625 40.95703125 C25.57677124 39.86032104 25.57677124 39.86032104 26.41625977 38.74145508 C28 37 28 37 31.125 35.75 C34.61715613 36.05366575 36.33511362 36.71581167 39 39 C40.06263644 42.0244268 40.26488475 43.42050485 38.91796875 46.3671875 C38.34691406 47.19476563 37.77585937 48.02234375 37.1875 48.875 C36.55070312 49.82375 35.91390625 50.7725 35.2578125 51.75 C34.06696724 53.46415788 32.87587065 55.17814264 31.68261719 56.890625 C30.76049463 58.21858604 29.84263015 59.54951354 28.92895508 60.88330078 C28.03133163 62.19164669 27.12258518 63.49244369 26.2019043 64.78466797 C24.41179769 67.38713557 23.08265498 69.54035768 22.51953125 72.671875 C23.12209093 75.59159507 24.25064777 77.0624875 26.125 79.375 C29.59460679 84.05444964 31.65485575 88.82547679 33.64550781 94.23730469 C35.86715145 100.08575937 38.95384181 105.03318289 42.4609375 110.1953125 C44.09464602 113.17247676 44.47404486 114.67026318 44 118 C41.84429597 121.19044197 40.43724467 121.89275131 36.6875 122.8125 C31.81560076 121.73903068 30.49000158 119.75323657 27.6953125 115.76171875 C23.28940478 108.58435295 19.84733055 101.01929091 16.859375 93.15625 C16.0140779 91.03532273 15.03238038 89.03492934 14 87 C13.44014404 86.98018066 12.88028809 86.96036133 12.3034668 86.93994141 C9.76434146 86.84462217 7.22603112 86.73497247 4.6875 86.625 C3.80642578 86.5940625 2.92535156 86.563125 2.01757812 86.53125 C1.17001953 86.49257812 0.32246094 86.45390625 -0.55078125 86.4140625 C-1.72120972 86.36693115 -1.72120972 86.36693115 -2.9152832 86.31884766 C-5 86 -5 86 -8 84 C-8.36442233 82.33985384 -8.69972883 80.67293936 -9 79 C-9.66 78.67 -10.32 78.34 -11 78 C-11.93613379 75.19159864 -12.1741055 73.24533104 -12.28125 70.32421875 C-12.31863281 69.41349609 -12.35601563 68.50277344 -12.39453125 67.56445312 C-12.42933594 66.61505859 -12.46414063 65.66566406 -12.5 64.6875 C-12.74286951 55.06086319 -12.74286951 55.06086319 -14.75 45.6875 C-15.02060533 42.77849268 -14.59125464 41.74338236 -13.51953125 39.09375 C-11.52008082 33.3195654 -11.73935781 27.85770593 -11.9375 21.8125 C-12.28518747 9.71741457 -12.28518747 9.71741457 -10 4 C-10 2.68 -10 1.36 -10 0 C-6.64338305 -1.67830848 -3.63864406 -0.6353188 0 0 Z M-8 77 C-8 77.66 -8 78.32 -8 79 C-7.01 78.67 -6.02 78.34 -5 78 C-5.99 77.67 -6.98 77.34 -8 77 Z M-5 80 C-4.34 80.66 -3.68 81.32 -3 82 C-3 81.34 -3 80.68 -3 80 C-3.66 80 -4.32 80 -5 80 Z " fill="#000000" transform="translate(1093,168)"/>
<path d="M0 0 C0.86625 -0.01675781 1.7325 -0.03351563 2.625 -0.05078125 C5 0.3125 5 0.3125 6.796875 1.51171875 C8.41886229 3.93943349 8.33270317 5.53461871 8.25 8.4375 C8.22550781 9.41203125 8.20101562 10.3865625 8.17578125 11.390625 C7.976514 14.70288959 7.6260542 17.96306163 7.12109375 21.2421875 C6.90699364 23.36264866 6.90699364 23.36264866 7.47485352 25.59912109 C8.01170187 28.37296237 8.18943108 30.97490836 8.28125 33.796875 C8.31863281 34.81394531 8.35601563 35.83101562 8.39453125 36.87890625 C8.46536082 39.01691002 8.53566583 41.15493122 8.60546875 43.29296875 C8.64285156 44.30488281 8.68023438 45.31679687 8.71875 46.359375 C8.74904297 47.28588867 8.77933594 48.21240234 8.81054688 49.16699219 C8.76689798 51.2934543 8.76689798 51.2934543 10 52.3125 C11.55156391 52.43352273 13.10810149 52.49209399 14.6640625 52.5234375 C16.10072266 52.56597656 16.10072266 52.56597656 17.56640625 52.609375 C19.58186 52.6608553 21.59750766 52.70529753 23.61328125 52.7421875 C30.88130687 52.97507484 36.07193438 53.72490713 41.6875 58.6875 C42.450625 59.55375 43.21375 60.42 44 61.3125 C44.70125 62.055 45.4025 62.7975 46.125 63.5625 C51.34697006 71.22138942 51.55916021 79.52007091 51.5559082 88.5769043 C51.56245958 90.61244252 51.61704301 92.6430575 51.67382812 94.67773438 C51.71382567 103.77495486 50.27500933 110.76855553 45 118.3125 C40.30941492 122.82484812 35.88320558 125.67705976 29.16796875 125.60546875 C23.86540819 124.88890651 18.56866732 122.66935523 13.85546875 120.1796875 C11.88838296 119.10079627 11.88838296 119.10079627 9 119.3125 C8.566875 120.7665625 8.566875 120.7665625 8.125 122.25 C7 125.3125 7 125.3125 5 126.3125 C3.17065435 126.45929934 1.33499757 126.53352635 -0.5 126.5625 C-1.4796875 126.58828125 -2.459375 126.6140625 -3.46875 126.640625 C-4.3040625 126.53234375 -5.139375 126.4240625 -6 126.3125 C-8.46270288 122.61844568 -8.22985417 120.67972928 -8 116.3125 C-7.83371094 115.74789062 -7.66742187 115.18328125 -7.49609375 114.6015625 C-6.74385222 111.13058977 -6.85427755 107.65894539 -6.875 104.125 C-6.8754834 103.36050537 -6.8759668 102.59601074 -6.87646484 101.80834961 C-6.90034437 97.94192519 -7.04634035 94.20517575 -7.625 90.375 C-8.21138472 86.31721771 -7.42430868 82.97168225 -6.27734375 79.0625 C-5.82035225 76.11925305 -5.82035225 76.11925305 -6.96386719 72.57983398 C-8.50914861 65.88211578 -8.30851632 59.1228866 -8.30078125 52.28515625 C-8.30467469 50.84549335 -8.30901068 49.40583158 -8.31376648 47.96617126 C-8.32118311 44.96821337 -8.32096761 41.9703734 -8.31567383 38.97241211 C-8.30983835 35.1265221 -8.32692912 31.28110734 -8.3500185 27.43529606 C-8.36471415 24.47138136 -8.36563409 21.5075829 -8.36250877 18.54363823 C-8.36302256 17.12461837 -8.36827113 15.70559211 -8.37832069 14.28660774 C-8.39060613 12.31228417 -8.38198136 10.33786352 -8.37231445 8.36352539 C-8.37294388 7.24039444 -8.3735733 6.11726349 -8.3742218 4.96009827 C-8.25072861 4.08639084 -8.12723541 3.21268341 -8 2.3125 C-4.78169935 0.16696623 -3.73213493 0.01666132 0 0 Z M16.25 69.0625 C10.13052787 77.53142163 10.13052787 77.53142163 8.23828125 87.3828125 C10.97917484 97.92471094 14.93813271 103.43290493 24.125 109.3125 C27.77256377 110.58121783 29.39267831 110.77077898 33 109.3125 C38.02730349 103.75762324 38.81052931 98.190128 38.625 90.9375 C38.61243164 90.0108252 38.59986328 89.08415039 38.58691406 88.12939453 C38.35809404 81.43817803 37.48030384 75.57096187 33 70.3125 C29.25830084 66.87672593 26.32727338 66.71965424 21.39453125 66.921875 C18.80496702 67.18287497 18.80496702 67.18287497 16.25 69.0625 Z " fill="#000000" transform="translate(634,169.6875)"/>
<path d="M0 0 C3.625 0.1875 3.625 0.1875 6.625 2.1875 C6.98144531 5.21264648 6.98144531 5.21264648 6.953125 9.05859375 C6.95031525 10.07579247 6.95031525 10.07579247 6.94744873 11.11354065 C6.94072369 12.54848135 6.92680003 13.98340358 6.90625 15.41821289 C6.8751704 17.61296664 6.86528666 19.80700139 6.859375 22.00195312 C6.78899894 32.69550318 6.78899894 32.69550318 5.625 36.1875 C5.40652178 38.27875127 5.23494341 40.37503601 5.08984375 42.47265625 C4.95932617 44.35307617 4.95932617 44.35307617 4.82617188 46.27148438 C4.6956543 48.24084961 4.6956543 48.24084961 4.5625 50.25 C4.47162109 51.53583984 4.38074219 52.82167969 4.28710938 54.14648438 C3.85361891 60.53150561 3.52092645 66.85062984 3.69580078 73.25048828 C3.60155787 75.82884427 2.63238138 77.83694345 1.625 80.1875 C1.89975197 82.93501969 2.54227598 85.00178865 3.66455078 87.52124023 C5.29233274 92.04005232 4.72230265 96.51063103 4.5 101.25 C4.46519531 102.73983398 4.46519531 102.73983398 4.4296875 104.25976562 C4.11943812 111.45852072 4.11943812 111.45852072 1.796875 114.8828125 C-1.46752588 116.84380152 -3.7796133 116.05305606 -7.375 115.1875 C-8.035 114.8575 -8.695 114.5275 -9.375 114.1875 C-9.40037991 106.46452538 -9.41787951 98.74156153 -9.42993164 91.01855469 C-9.43495667 88.39192299 -9.44177774 85.76529409 -9.45043945 83.13867188 C-9.46258507 79.36067007 -9.46824667 75.58270529 -9.47265625 71.8046875 C-9.47781754 70.63259735 -9.48297882 69.4605072 -9.48829651 68.25289917 C-9.48837204 67.152211 -9.48844757 66.05152283 -9.48852539 64.91748047 C-9.490746 63.95373505 -9.49296661 62.98998962 -9.49525452 61.99703979 C-9.36665362 58.99250126 -8.8767424 56.15016939 -8.375 53.1875 C-8.31392343 51.65754049 -8.29556465 50.12513439 -8.32495117 48.59423828 C-8.33793747 47.73959991 -8.35092377 46.88496155 -8.36430359 46.00442505 C-8.38201309 45.09804291 -8.3997226 44.19166077 -8.41796875 43.2578125 C-8.44035645 41.30860392 -8.46181191 39.35938444 -8.48242188 37.41015625 C-8.51947665 34.35988599 -8.56254513 31.31017824 -8.62182617 28.26025391 C-8.67657357 25.30102558 -8.70547601 22.3424226 -8.73046875 19.3828125 C-8.75425095 18.48047882 -8.77803314 17.57814514 -8.80253601 16.64846802 C-8.82808363 10.41725529 -7.57072332 6.55258295 -4.375 1.1875 C-3.375 0.1875 -3.375 0.1875 0 0 Z " fill="#000000" transform="translate(710.375,179.8125)"/>
<path d="M0 0 C14.3637595 -0.15081493 28.66066865 -0.03262414 42.98876953 1.04150391 C45.22485448 5.13793821 45.69363196 8.39308709 45.98876953 13.04150391 C43.98876953 16.04150391 43.98876953 16.04150391 40.98876953 17.04150391 C38.77787008 17.12509349 36.56450875 17.14882154 34.35205078 17.13916016 C33.05332031 17.1359375 31.75458984 17.13271484 30.41650391 17.12939453 C29.04475845 17.12103922 27.67301366 17.11257428 26.30126953 17.10400391 C24.91780758 17.09898726 23.5343439 17.09442464 22.15087891 17.09033203 C18.76346558 17.0785292 15.3761392 17.06206409 11.98876953 17.04150391 C11.85770682 27.18637968 11.72726969 37.33126328 11.5976181 47.47615719 C11.53738812 52.18747791 11.47694747 56.89879572 11.41601562 61.61010742 C11.35715595 66.16180864 11.2988624 70.71351679 11.24095154 75.26523018 C11.21882541 76.99664122 11.1964997 78.72804972 11.17396545 80.45945549 C11.14229444 82.89557121 11.11135095 85.33169521 11.08056641 87.76782227 C11.0665403 88.82734856 11.0665403 88.82734856 11.05223083 89.90827942 C11.04381668 90.58536957 11.03540253 91.26245972 11.0267334 91.96006775 C11.01355324 92.95038404 11.01355324 92.95038404 11.00010681 93.96070671 C10.99194812 95.45811969 11.00247321 96.95567681 11.0249176 98.4529438 C11.03558762 99.25222738 11.04625763 100.05151096 11.05725098 100.87501526 C11.07915874 101.96487905 11.07915874 101.96487905 11.10150909 103.07676029 C10.928054 106.09961031 9.96582243 107.79175405 7.98876953 110.04150391 C4.95894573 111.84302076 3.33038059 112.06829693 -0.19873047 111.79150391 C-3.01123047 111.04150391 -3.01123047 111.04150391 -5.01123047 109.04150391 C-5.2290895 106.1209036 -5.32267584 103.29237199 -5.33007812 100.36914062 C-5.34012375 99.47152008 -5.35016937 98.57389954 -5.36051941 97.64907837 C-5.39148522 94.67312275 -5.40842364 91.69725762 -5.42529297 88.72119141 C-5.44399385 86.66137913 -5.46356644 84.6015746 -5.48397827 82.54177856 C-5.5354196 77.11338863 -5.57498097 71.68497383 -5.61212158 66.25646973 C-5.65208617 60.71990751 -5.70321283 55.18344981 -5.75341797 49.64697266 C-5.85031928 38.77855637 -5.93467844 27.91008123 -6.01123047 17.04150391 C-6.87401611 17.05197754 -7.73680176 17.06245117 -8.62573242 17.07324219 C-11.82933568 17.10734374 -15.03284637 17.13241247 -18.23657227 17.15136719 C-19.62267095 17.16141961 -21.00874846 17.1750636 -22.39477539 17.19238281 C-24.38792797 17.21666342 -26.38123579 17.22692422 -28.37451172 17.23681641 C-30.17335815 17.25252686 -30.17335815 17.25252686 -32.00854492 17.26855469 C-35.01123047 17.04150391 -35.01123047 17.04150391 -38.01123047 15.04150391 C-38.40966797 13.05322266 -38.40966797 13.05322266 -38.38623047 10.72900391 C-38.39396484 9.96974609 -38.40169922 9.21048828 -38.40966797 8.42822266 C-37.88829579 5.30510108 -36.95264235 3.55009855 -35.01123047 1.04150391 C-32.28515625 0.38208008 -32.28515625 0.38208008 -28.95654297 0.33447266 C-27.71606201 0.30530762 -26.47558105 0.27614258 -25.19750977 0.24609375 C-23.84375349 0.23962069 -22.48999321 0.23394413 -21.13623047 0.22900391 C-19.74142467 0.20692168 -18.34664731 0.18297094 -16.9519043 0.15722656 C-13.34572786 0.09778792 -9.7400848 0.0702533 -6.13348389 0.05328369 C-4.08887008 0.04193485 -2.04451703 0.02263908 0 0 Z " fill="#000000" transform="translate(361.01123046875,180.95849609375)"/>
<path d="M0 0 C14.3637595 -0.15081493 28.66066865 -0.03262414 42.98876953 1.04150391 C45.22485448 5.13793821 45.69363196 8.39308709 45.98876953 13.04150391 C43.98876953 16.04150391 43.98876953 16.04150391 40.98876953 17.04150391 C38.77787008 17.12509349 36.56450875 17.14882154 34.35205078 17.13916016 C33.05332031 17.1359375 31.75458984 17.13271484 30.41650391 17.12939453 C29.04475845 17.12103922 27.67301366 17.11257428 26.30126953 17.10400391 C24.91780758 17.09898726 23.5343439 17.09442464 22.15087891 17.09033203 C18.76346558 17.0785292 15.3761392 17.06206409 11.98876953 17.04150391 C11.85770682 27.18637968 11.72726969 37.33126328 11.5976181 47.47615719 C11.53738812 52.18747791 11.47694747 56.89879572 11.41601562 61.61010742 C11.35715595 66.16180864 11.2988624 70.71351679 11.24095154 75.26523018 C11.21882541 76.99664122 11.1964997 78.72804972 11.17396545 80.45945549 C11.14229444 82.89557121 11.11135095 85.33169521 11.08056641 87.76782227 C11.0665403 88.82734856 11.0665403 88.82734856 11.05223083 89.90827942 C11.04381668 90.58536957 11.03540253 91.26245972 11.0267334 91.96006775 C11.01355324 92.95038404 11.01355324 92.95038404 11.00010681 93.96070671 C10.99194812 95.45811969 11.00247321 96.95567681 11.0249176 98.4529438 C11.03558762 99.25222738 11.04625763 100.05151096 11.05725098 100.87501526 C11.07915874 101.96487905 11.07915874 101.96487905 11.10150909 103.07676029 C10.928054 106.09961031 9.96582243 107.79175405 7.98876953 110.04150391 C4.95894573 111.84302076 3.33038059 112.06829693 -0.19873047 111.79150391 C-3.01123047 111.04150391 -3.01123047 111.04150391 -5.01123047 109.04150391 C-5.2290895 106.1209036 -5.32267584 103.29237199 -5.33007812 100.36914062 C-5.34012375 99.47152008 -5.35016937 98.57389954 -5.36051941 97.64907837 C-5.39148522 94.67312275 -5.40842364 91.69725762 -5.42529297 88.72119141 C-5.44399385 86.66137913 -5.46356644 84.6015746 -5.48397827 82.54177856 C-5.5354196 77.11338863 -5.57498097 71.68497383 -5.61212158 66.25646973 C-5.65208617 60.71990751 -5.70321283 55.18344981 -5.75341797 49.64697266 C-5.85031928 38.77855637 -5.93467844 27.91008123 -6.01123047 17.04150391 C-6.87401611 17.05197754 -7.73680176 17.06245117 -8.62573242 17.07324219 C-11.82933568 17.10734374 -15.03284637 17.13241247 -18.23657227 17.15136719 C-19.62267095 17.16141961 -21.00874846 17.1750636 -22.39477539 17.19238281 C-24.38792797 17.21666342 -26.38123579 17.22692422 -28.37451172 17.23681641 C-30.17335815 17.25252686 -30.17335815 17.25252686 -32.00854492 17.26855469 C-35.01123047 17.04150391 -35.01123047 17.04150391 -38.01123047 15.04150391 C-38.40966797 13.05322266 -38.40966797 13.05322266 -38.38623047 10.72900391 C-38.39396484 9.96974609 -38.40169922 9.21048828 -38.40966797 8.42822266 C-37.88829579 5.30510108 -36.95264235 3.55009855 -35.01123047 1.04150391 C-32.28515625 0.38208008 -32.28515625 0.38208008 -28.95654297 0.33447266 C-27.71606201 0.30530762 -26.47558105 0.27614258 -25.19750977 0.24609375 C-23.84375349 0.23962069 -22.48999321 0.23394413 -21.13623047 0.22900391 C-19.74142467 0.20692168 -18.34664731 0.18297094 -16.9519043 0.15722656 C-13.34572786 0.09778792 -9.7400848 0.0702533 -6.13348389 0.05328369 C-4.08887008 0.04193485 -2.04451703 0.02263908 0 0 Z " fill="#000000" transform="translate(829.01123046875,180.95849609375)"/>
<path d="M0 0 C8.15627144 3.60307301 15.82711333 8.92152901 20 17 C24.31413956 29.02946797 25.96782076 42.32998282 20.5859375 54.08984375 C16.38247826 62.4679714 11.73926687 68.67242965 4.0625 74.0625 C-0.94534638 75.5955142 -5.31972264 75.20116134 -10.109375 73.0546875 C-12.20274456 71.82949834 -14.08630469 70.48930292 -16 69 C-16.59683594 68.56300781 -17.19367188 68.12601562 -17.80859375 67.67578125 C-24.3617665 62.11507119 -27.0239109 53.82263092 -30 46 C-30.36480469 45.05125 -30.72960937 44.1025 -31.10546875 43.125 C-34.62524814 32.81353362 -33.72300655 22.40217377 -29.125 12.625 C-22.21927224 0.64950835 -12.85244401 -4.1102527 0 0 Z M-15 14 C-18.8015346 21.19576193 -20.43692717 29.33156189 -18.40698242 37.33935547 C-17.59568052 39.68013654 -16.70003284 41.96216582 -15.75 44.25 C-15.44964844 45.02601563 -15.14929688 45.80203125 -14.83984375 46.6015625 C-12.80856333 51.66679792 -10.63802049 56.12785643 -6.0625 59.375 C-3.12513222 60.26511145 -1.87848585 60.16510141 1 59 C6.61181293 54.37424206 9.42123316 47.97617596 11 41 C11.16812771 37.83184338 10.74357265 35.07520402 10 32 C9.79890625 31.14019531 9.5978125 30.28039062 9.390625 29.39453125 C7.66444173 22.90216418 5.50643236 19.00514589 0.1875 14.75 C-4.83384738 11.99318183 -9.98652139 10.65768092 -15 14 Z " fill="#000000" transform="translate(510,216)"/>
<path d="M0 0 C3.21426348 3.21426348 5.21524995 5.79895058 5.8359375 10.375 C5.82820312 11.385625 5.82046875 12.39625 5.8125 13.4375 C5.82410156 14.9534375 5.82410156 14.9534375 5.8359375 16.5 C5.36700588 19.95722137 4.59290487 21.69549761 2.4375 24.4375 C-6.61511787 31.00327953 -15.80114062 32.38742704 -26.703125 33.05078125 C-30.57444624 33.02739113 -30.57444624 33.02739113 -32.5625 35.4375 C-32.23876888 42.02003279 -31.0881056 46.04482101 -26.1875 50.6875 C-18.5999933 55.7458378 -8.05247414 53.55738404 0.3828125 51.875 C1.06085937 51.730625 1.73890625 51.58625 2.4375 51.4375 C5.7285841 55.04707611 6.98413921 57.56387153 7.4375 62.4375 C1.7962651 67.37003705 -7.078812 69.22543368 -14.453125 69.57421875 C-16.9020334 69.37784402 -19.17154599 68.99594082 -21.5625 68.4375 C-22.30757812 68.29441406 -23.05265625 68.15132813 -23.8203125 68.00390625 C-32.37795718 65.8421319 -38.993168 59.31482402 -43.625 52 C-48.94221941 42.63336794 -48.42095855 27.39182673 -45.5859375 17.1015625 C-44.42914816 14.0570065 -43.15511552 11.2744915 -41.5625 8.4375 C-41.005625 7.32375 -40.44875 6.21 -39.875 5.0625 C-27.62571769 -8.84209073 -14.59671943 -11.17279759 0 0 Z M-27.5625 10.4375 C-29.97463225 14.28183578 -30.5625 15.8669025 -30.5625 20.4375 C-22.31170527 20.28393191 -16.42124815 19.13123926 -9.5625 14.4375 C-9.09066254 10.37969787 -9.22920355 8.87554676 -11.75 5.5625 C-18.41865716 0.52395904 -22.76688098 5.27857651 -27.5625 10.4375 Z " fill="#000000" transform="translate(776.5625,221.5625)"/>
<path d="M0 0 C3.21426348 3.21426348 5.21524995 5.79895058 5.8359375 10.375 C5.82820313 11.385625 5.82046875 12.39625 5.8125 13.4375 C5.82410156 14.9534375 5.82410156 14.9534375 5.8359375 16.5 C5.36700588 19.95722137 4.59290487 21.69549761 2.4375 24.4375 C-6.61511787 31.00327953 -15.80114062 32.38742704 -26.703125 33.05078125 C-30.57444624 33.02739113 -30.57444624 33.02739113 -32.5625 35.4375 C-32.23876888 42.02003279 -31.0881056 46.04482101 -26.1875 50.6875 C-18.5999933 55.7458378 -8.05247414 53.55738404 0.3828125 51.875 C1.06085938 51.730625 1.73890625 51.58625 2.4375 51.4375 C5.7285841 55.04707611 6.98413921 57.56387153 7.4375 62.4375 C1.7962651 67.37003705 -7.078812 69.22543368 -14.453125 69.57421875 C-16.9020334 69.37784402 -19.17154599 68.99594082 -21.5625 68.4375 C-22.30757812 68.29441406 -23.05265625 68.15132813 -23.8203125 68.00390625 C-32.37795718 65.8421319 -38.993168 59.31482402 -43.625 52 C-48.94221941 42.63336794 -48.42095855 27.39182673 -45.5859375 17.1015625 C-44.42914816 14.0570065 -43.15511552 11.2744915 -41.5625 8.4375 C-41.005625 7.32375 -40.44875 6.21 -39.875 5.0625 C-27.62571769 -8.84209073 -14.59671943 -11.17279759 0 0 Z M-27.5625 10.4375 C-29.97463225 14.28183578 -30.5625 15.8669025 -30.5625 20.4375 C-22.31170527 20.28393191 -16.42124815 19.13123926 -9.5625 14.4375 C-9.09066254 10.37969787 -9.22920355 8.87554676 -11.75 5.5625 C-18.41865716 0.52395904 -22.76688098 5.27857651 -27.5625 10.4375 Z " fill="#000000" transform="translate(1193.5625,221.5625)"/>
<path d="M0 0 C3 2 3 2 3.66796875 4.765625 C4.15826967 9.48127357 4.15558581 14.22934858 4.24023438 18.96582031 C3.47778019 39.46513774 3.47778019 39.46513774 10 58 C11.99958364 58.04080783 14.00045254 58.04254356 16 58 C24.75598947 42.1646999 30.68383422 22.45757945 32.34765625 4.40625 C33 2 33 2 34.8671875 0.6796875 C37.77230137 -0.24611802 39.97198129 -0.38655558 43 0 C45.73987262 2.84895361 46.37505919 4.86386423 46.38476562 8.76513672 C46.39487671 9.70646454 46.40498779 10.64779236 46.41540527 11.61764526 C46.41238403 12.6281192 46.40936279 13.63859314 46.40625 14.6796875 C46.41708618 15.72520782 46.42792236 16.77072815 46.43908691 17.84793091 C46.47336654 21.19035016 46.48894302 24.53242803 46.5 27.875 C46.51457969 32.26855709 46.54829895 36.66135332 46.59375 41.0546875 C46.59072876 42.06111298 46.58770752 43.06753845 46.58459473 44.10446167 C46.65003765 50.23791021 47.14169238 54.9923778 51.5703125 59.65234375 C52.08335937 60.07644531 52.59640625 60.50054687 53.125 60.9375 C55.5557608 63.26469455 56.05805175 64.17415525 57.1875 67.5625 C57 71 57 71 55 74 C52 76 52 76 48.5625 76.0625 C43.23955911 74.47495623 39.75180243 72.10483972 36.375 67.75 C35.59125 66.8425 34.8075 65.935 34 65 C32.68 65 31.36 65 30 65 C28.37653278 66.62781968 27.17431797 68.39378729 25.85546875 70.2734375 C22.27299904 73.60701984 17.98524525 73.96001606 13.24609375 74.15234375 C0.41200014 73.42836924 0.41200014 73.42836924 -2.86328125 69.92578125 C-6.95677857 62.99074971 -10.12106835 54.60982595 -10.12939453 46.49438477 C-10.13254669 45.60989151 -10.13569885 44.72539825 -10.13894653 43.81410217 C-10.1369223 42.86611252 -10.13489807 41.91812286 -10.1328125 40.94140625 C-10.13376923 39.96010239 -10.13472595 38.97879852 -10.13571167 37.96775818 C-10.13639162 35.89411352 -10.1345502 33.82046673 -10.13037109 31.74682617 C-10.125026 28.57791339 -10.1303194 25.40914272 -10.13671875 22.24023438 C-10.13605782 20.22395802 -10.13477636 18.20768176 -10.1328125 16.19140625 C-10.13483673 15.24544083 -10.13686096 14.2994754 -10.13894653 13.32484436 C-10.10745851 4.4578485 -10.10745851 4.4578485 -9 1 C-5.98131566 -0.50934217 -3.32702771 -0.17510672 0 0 Z " fill="#000000" transform="translate(557,219)"/>
<path d="M0 0 C3.64334343 3.26966718 6.86162542 6.45987625 8.4375 11.1875 C8.53213176 14.00407851 8.57450838 16.80044437 8.578125 19.6171875 C8.5964508 21.31641968 8.61602091 23.01563881 8.63671875 24.71484375 C8.66569549 27.39003569 8.68750034 30.06438695 8.68798828 32.73974609 C8.6913261 35.32464939 8.72588802 37.90762027 8.765625 40.4921875 C8.7585553 41.28817352 8.7514856 42.08415955 8.74420166 42.90426636 C8.83734815 47.16414676 9.04131187 48.71078388 11.86621094 52.10986328 C12.71473633 52.7954834 13.56326172 53.48110352 14.4375 54.1875 C16.75355404 56.66328191 17.38027585 57.79510585 17.875 61.1875 C17.4375 64.1875 17.4375 64.1875 15.75 66.625 C13.4375 68.1875 13.4375 68.1875 11.1875 68.3125 C8.37741728 67.1629207 6.94539888 65.91764147 4.6875 63.9375 C1.80604248 61.64341119 1.80604248 61.64341119 -1.7265625 61.28515625 C-5.05191447 62.36031422 -8.02028978 63.90308912 -11.109375 65.5234375 C-17.68958425 68.97306235 -21.67388176 69.9379351 -29.125 68.5 C-36.60250965 65.64495086 -39.2891092 61.50429982 -42.58203125 54.4921875 C-44.44070882 50.12318446 -45.02290308 46.94499848 -44.5625 42.1875 C-42.534874 37.37797114 -39.86206144 32.27780979 -35.5625 29.1875 C-34.799375 29.22875 -34.03625 29.27 -33.25 29.3125 C-29.45532624 29.13600355 -27.95227955 27.18028695 -25.30859375 24.59765625 C-21.0559917 21.1632282 -15.1088551 21.84967157 -9.875 21.58203125 C-6.09346669 21.41705515 -6.09346669 21.41705515 -2.5625 20.1875 C-3.14357632 16.4272015 -4.21449496 13.65714968 -6.125 10.375 C-6.80755859 9.18970703 -6.80755859 9.18970703 -7.50390625 7.98046875 C-7.85324219 7.38878906 -8.20257812 6.79710937 -8.5625 6.1875 C-11.29179336 6.66595385 -14.02093651 7.14523823 -16.75 7.625 C-17.51892578 7.75970703 -18.28785156 7.89441406 -19.08007812 8.03320312 C-22.91715574 8.70839704 -26.74649568 9.39982777 -30.5625 10.1875 C-34.62553349 5.04895765 -34.62553349 5.04895765 -34.375 1.625 C-31.15140584 -2.71017836 -26.23123183 -5.07398301 -21.078125 -6.5 C-13.46425611 -7.44582222 -6.09808892 -4.31328241 0 0 Z M-21.56640625 33.71875 C-26.11243794 35.94731312 -29.05390389 38.79958273 -31.5625 43.1875 C-32.45067938 47.22467898 -31.76057719 48.76757636 -30 52.5 C-27.74829355 55.39631992 -27.74829355 55.39631992 -24.375 56.375 C-17.99926062 56.06143905 -12.89539116 52.95846133 -8.5625 48.3125 C-6.25897896 44.71324837 -5.5625 42.45461593 -5.5625 38.1875 C-6.77323701 35.31996498 -7.76320822 33.74593377 -10.3125 31.96484375 C-14.35289364 30.56894386 -17.69352439 32.31560064 -21.56640625 33.71875 Z " fill="#000000" transform="translate(988.5625,224.8125)"/>
<path d="M0 0 C4.37554439 2.02694413 7.61650504 4.61650504 11 8 C11.23529412 13.52941176 11.23529412 13.52941176 10 16 C4.80920251 17.32987374 0.87629136 17.18149876 -4 15 C-8.56683026 14.49257442 -12.43930711 14.7747842 -16.421875 17.27734375 C-20.84674931 22.10746645 -21.70331857 29.6636337 -22.5 35.9375 C-22.13015994 42.32066547 -20.44827815 50.72882836 -16.59375 55.87890625 C-14.26501942 57.5170084 -11.98219935 57.64719998 -9.19140625 57.5546875 C-4.85482097 56.45701351 -2.02996539 53.13051734 1 50 C1.825 49.195625 2.65 48.39125 3.5 47.5625 C3.995 47.046875 4.49 46.53125 5 46 C8.79303725 47.00193437 11.71536341 47.81024227 15 50 C15.96794132 54.30196143 14.6190792 57.24909747 12.625 61 C8.66349576 67.1654397 3.59637589 70.80808265 -3.515625 72.65234375 C-11.32741749 73.74550339 -18.88711417 72.84916612 -25.375 68.1875 C-32.78710823 61.95120814 -36.35737508 54.93587437 -37.25244141 45.27539062 C-38.55439019 22.66915871 -38.55439019 22.66915871 -32 13 C-31.443125 11.9275 -30.88625 10.855 -30.3125 9.75 C-22.09550625 -0.02156014 -12.38605294 -2.62646121 0 0 Z " fill="#000000" transform="translate(1053,219)"/>
<path d="M0 0 C0.78375 0.70125 1.5675 1.4025 2.375 2.125 C4.91160336 4.32089192 4.91160336 4.32089192 8.3125 4 C11.31583668 3.18553582 13.05473976 2.46658923 15.65625 0.96875 C20.2123769 -1.35214704 24.14000862 -1.60154216 29.1875 -1.5 C29.96802734 -1.51546875 30.74855469 -1.5309375 31.55273438 -1.546875 C35.50025224 -1.52008947 37.58980279 -1.24339067 41.0546875 0.8125 C43 3 43 3 42.9375 6.5 C42.17924507 9.33081839 41.3488958 11.44773242 40 14 C39.09121094 13.85691406 39.09121094 13.85691406 38.1640625 13.7109375 C30.99763706 12.76276429 23.81856515 12.18216227 17.734375 16.671875 C7.44504852 26.50389808 4.8332036 38.03530073 4.47010803 51.92248535 C4.42942402 53.98995174 4.40114886 56.05730289 4.375 58.125 C4.33838582 60.23513313 4.29785714 62.34508754 4.25234985 64.45504761 C4.2130779 66.34244538 4.18507148 68.23006771 4.15771484 70.11767578 C4 73 4 73 3 75 C1.0390625 75.484375 1.0390625 75.484375 -1.375 75.75 C-2.16648437 75.84796875 -2.95796875 75.9459375 -3.7734375 76.046875 C-6 76 -6 76 -9 74 C-9.52416992 71.78857422 -9.52416992 71.78857422 -9.73046875 69.0546875 C-9.81103516 68.05953125 -9.89160156 67.064375 -9.97460938 66.0390625 C-10.04486328 64.99492187 -10.11511719 63.95078125 -10.1875 62.875 C-10.26935547 61.8540625 -10.35121094 60.833125 -10.43554688 59.78125 C-11.55126401 45.19254533 -11.55126401 45.19254533 -10.50178528 41.01844788 C-9.65473205 37.61114827 -9.84288359 34.11390182 -9.82421875 30.62109375 C-9.80103538 28.96157565 -9.77691866 27.30207037 -9.75195312 25.64257812 C-9.71674775 23.03319507 -9.68743237 20.42428974 -9.67407227 17.81469727 C-9.6586347 15.29124899 -9.61847568 12.76917928 -9.57421875 10.24609375 C-9.57612717 9.46479599 -9.57803558 8.68349823 -9.58000183 7.87852478 C-9.45789722 2.49089669 -9.45789722 2.49089669 -7.11645508 -0.01928711 C-4.23088139 -1.35639052 -2.97396976 -1.08803772 0 0 Z " fill="#000000" transform="translate(426,221)"/>
<path d="M0 0 C0.78375 0.70125 1.5675 1.4025 2.375 2.125 C4.91160336 4.32089192 4.91160336 4.32089192 8.3125 4 C11.31583668 3.18553582 13.05473976 2.46658923 15.65625 0.96875 C20.2123769 -1.35214704 24.14000862 -1.60154216 29.1875 -1.5 C29.96802734 -1.51546875 30.74855469 -1.5309375 31.55273438 -1.546875 C35.50025224 -1.52008947 37.58980279 -1.24339067 41.0546875 0.8125 C43 3 43 3 42.9375 6.5 C42.17924507 9.33081839 41.3488958 11.44773242 40 14 C39.09121094 13.85691406 39.09121094 13.85691406 38.1640625 13.7109375 C30.99763706 12.76276429 23.81856515 12.18216227 17.734375 16.671875 C7.44504852 26.50389808 4.8332036 38.03530073 4.47010803 51.92248535 C4.42942402 53.98995174 4.40114886 56.05730289 4.375 58.125 C4.33838582 60.23513313 4.29785714 62.34508754 4.25234985 64.45504761 C4.2130779 66.34244538 4.18507148 68.23006771 4.15771484 70.11767578 C4 73 4 73 3 75 C1.0390625 75.484375 1.0390625 75.484375 -1.375 75.75 C-2.16648437 75.84796875 -2.95796875 75.9459375 -3.7734375 76.046875 C-6 76 -6 76 -9 74 C-9.52416992 71.78857422 -9.52416992 71.78857422 -9.73046875 69.0546875 C-9.81103516 68.05953125 -9.89160156 67.064375 -9.97460938 66.0390625 C-10.04486328 64.99492187 -10.11511719 63.95078125 -10.1875 62.875 C-10.26935547 61.8540625 -10.35121094 60.833125 -10.43554688 59.78125 C-11.55126401 45.19254533 -11.55126401 45.19254533 -10.50178528 41.01844788 C-9.65473205 37.61114827 -9.84288359 34.11390182 -9.82421875 30.62109375 C-9.80103538 28.96157565 -9.77691866 27.30207037 -9.75195312 25.64257812 C-9.71674775 23.03319507 -9.68743237 20.42428974 -9.67407227 17.81469727 C-9.6586347 15.29124899 -9.61847568 12.76917928 -9.57421875 10.24609375 C-9.57612717 9.46479599 -9.57803558 8.68349823 -9.58000183 7.87852478 C-9.45789722 2.49089669 -9.45789722 2.49089669 -7.11645508 -0.01928711 C-4.23088139 -1.35639052 -2.97396976 -1.08803772 0 0 Z " fill="#000000" transform="translate(894,221)"/>
<path d="M0 0 C0.78375 0.70125 1.5675 1.4025 2.375 2.125 C4.91160336 4.32089192 4.91160336 4.32089192 8.3125 4 C11.31583668 3.18553582 13.05473976 2.46658923 15.65625 0.96875 C20.2123769 -1.35214704 24.14000862 -1.60154216 29.1875 -1.5 C29.96802734 -1.51546875 30.74855469 -1.5309375 31.55273438 -1.546875 C35.50025224 -1.52008947 37.58980279 -1.24339067 41.0546875 0.8125 C43 3 43 3 42.9375 6.5 C42.17924507 9.33081839 41.3488958 11.44773242 40 14 C39.09121094 13.85691406 39.09121094 13.85691406 38.1640625 13.7109375 C30.99763706 12.76276429 23.81856515 12.18216227 17.734375 16.671875 C7.44504852 26.50389808 4.8332036 38.03530073 4.47010803 51.92248535 C4.42942402 53.98995174 4.40114886 56.05730289 4.375 58.125 C4.33838582 60.23513313 4.29785714 62.34508754 4.25234985 64.45504761 C4.2130779 66.34244538 4.18507148 68.23006771 4.15771484 70.11767578 C4 73 4 73 3 75 C1.0390625 75.484375 1.0390625 75.484375 -1.375 75.75 C-2.16648437 75.84796875 -2.95796875 75.9459375 -3.7734375 76.046875 C-6 76 -6 76 -9 74 C-9.52416992 71.78857422 -9.52416992 71.78857422 -9.73046875 69.0546875 C-9.81103516 68.05953125 -9.89160156 67.064375 -9.97460938 66.0390625 C-10.04486328 64.99492187 -10.11511719 63.95078125 -10.1875 62.875 C-10.26935547 61.8540625 -10.35121094 60.833125 -10.43554688 59.78125 C-11.55126401 45.19254533 -11.55126401 45.19254533 -10.50178528 41.01844788 C-9.65473205 37.61114827 -9.84288359 34.11390182 -9.82421875 30.62109375 C-9.80103538 28.96157565 -9.77691866 27.30207037 -9.75195312 25.64257812 C-9.71674775 23.03319507 -9.68743237 20.42428974 -9.67407227 17.81469727 C-9.6586347 15.29124899 -9.61847568 12.76917928 -9.57421875 10.24609375 C-9.57612717 9.46479599 -9.57803558 8.68349823 -9.58000183 7.87852478 C-9.45789722 2.49089669 -9.45789722 2.49089669 -7.11645508 -0.01928711 C-4.23088139 -1.35639052 -2.97396976 -1.08803772 0 0 Z " fill="#000000" transform="translate(1225,221)"/>
<path d="M0 0 C3.66060821 0.58536753 5.54535164 2.083239 8.25 4.5625 C8.95640625 5.20316406 9.6628125 5.84382813 10.390625 6.50390625 C10.92171875 6.99761719 11.4528125 7.49132812 12 8 C11.86722656 8.59167969 11.73445313 9.18335938 11.59765625 9.79296875 C11.23293798 11.42488333 10.87243121 13.05774351 10.515625 14.69140625 C10.1466458 16.34342677 9.74136774 17.98750499 9.3125 19.625 C8.85218633 22.2144014 8.85218633 22.2144014 9.625 25.625 C10 29 10 29 8.875 31 C7 32 7 32 4.5 31.875 C1.75251121 30.91337893 0.74259959 30.30182926 -1 28 C-1.76049657 22.4802668 -1.41737194 16.85293789 0.125 11.5 C1.32979404 8.16091306 1.32979404 8.16091306 0.0625 5.75 C-0.288125 5.1725 -0.63875 4.595 -1 4 C-0.625 1.75 -0.625 1.75 0 0 Z " fill="#000000" transform="translate(1083,258)"/>
</svg>
