<svg version="1.1" id="Layer_1" xmlns="http://www.w3.org/2000/svg" xmlns:xlink="http://www.w3.org/1999/xlink" x="0px" y="0px"
	 width="100%" viewBox="0 0 496 496" enable-background="new 0 0 496 496" xml:space="preserve">
<path fill="#000000" opacity="1.000000" stroke="none" 
	d="
M213.905518,105.654205 
	C216.111343,105.524284 217.142120,104.117645 218.381134,103.032898 
	C243.492249,81.048264 274.351837,81.280930 299.090027,103.899033 
	C302.270569,106.807007 304.776733,107.421196 308.754578,105.722588 
	C320.284363,100.799210 331.524719,95.462723 341.403259,87.590096 
	C345.712250,84.156036 348.394592,80.057526 347.717255,74.286026 
	C347.601868,73.302673 347.654510,72.278694 347.777466,71.291916 
	C348.295471,67.134766 350.608551,64.304901 354.795746,64.132538 
	C359.080292,63.956161 361.660736,66.814857 362.137573,70.882553 
	C363.126465,79.318481 361.445465,87.018349 355.471527,93.585106 
	C345.437805,104.614433 332.534515,111.076218 319.244659,116.995926 
	C317.434082,117.802406 315.438812,118.240799 313.731903,119.903824 
	C314.335632,123.460854 316.889282,126.258095 318.258026,129.571335 
	C320.553009,135.126602 322.678131,140.730698 323.273682,146.747818 
	C323.484192,148.874588 324.356934,150.094833 326.261932,150.851273 
	C344.686401,158.167297 359.371338,169.866226 369.062683,187.416458 
	C369.277100,187.804764 369.796692,188.024567 370.119507,188.279938 
	C370.554779,188.180359 370.982971,188.215942 371.169891,188.020630 
	C384.745697,173.834366 399.091858,160.227219 407.726990,142.142853 
	C412.837677,131.439499 414.315643,119.879395 414.658417,108.167084 
	C414.872864,100.839966 414.697968,93.501640 414.900208,86.173920 
	C415.058411,80.441132 417.856750,77.500916 422.522552,77.698692 
	C426.811676,77.880516 429.272797,80.947495 429.330872,86.438103 
	C429.510620,103.426392 429.619537,120.402809 424.920410,136.980270 
	C420.681763,151.933319 412.192596,164.357910 402.086548,175.831314 
	C394.269928,184.705536 386.406738,193.539978 378.457062,202.294785 
	C376.819855,204.097778 376.416107,205.647385 377.051270,208.084244 
	C378.388763,213.215714 379.666351,218.447693 380.074768,223.707809 
	C380.367523,227.477890 382.097046,228.825851 385.238129,229.880341 
	C420.744629,241.800415 437.170746,268.141907 441.426666,303.909973 
	C442.832764,315.727356 442.077179,327.523956 442.316925,339.328583 
	C442.419189,344.364868 439.625214,347.321564 435.394623,347.209015 
	C431.556854,347.106903 428.792236,344.012604 428.692993,339.380402 
	C428.354340,323.574585 428.353119,307.745056 424.654266,292.228973 
	C419.631134,271.157806 407.855591,255.535721 387.805756,246.605515 
	C386.595490,246.066452 385.342163,245.605103 384.074097,245.223022 
	C383.480621,245.044174 382.804138,245.140808 381.762268,245.094788 
	C381.278320,251.364792 380.876862,257.453369 380.316864,263.527374 
	C379.905090,267.994080 379.415253,272.461945 378.721497,276.891907 
	C378.072388,281.036804 378.121857,284.811584 379.782959,288.953094 
	C385.728180,303.775726 391.648346,318.610535 396.817383,333.746918 
	C404.933777,357.514191 405.193237,381.385498 398.930817,405.478912 
	C396.589081,414.488342 393.967285,423.428986 391.286133,432.344788 
	C389.322357,438.874878 385.608521,441.509705 381.138306,439.968964 
	C376.827515,438.483124 375.551727,434.433563 377.391998,428.166199 
	C381.465118,414.294617 385.831757,400.526978 387.864502,386.110413 
	C390.000549,370.961517 388.545105,356.253174 384.095154,341.739929 
	C381.036224,331.763428 377.539337,321.948334 372.353363,312.337280 
	C370.969513,317.373169 369.630280,322.421844 368.194580,327.442932 
	C359.346344,358.387787 347.134827,387.797577 328.220642,414.085693 
	C319.912140,425.633331 310.399445,436.090057 298.838623,444.507843 
	C272.580902,463.626770 242.276230,463.292114 216.475922,443.552124 
	C196.425629,428.211487 182.763199,407.802002 171.268021,385.771790 
	C160.593536,365.314453 152.852203,343.711975 146.831284,321.469727 
	C146.227463,319.239136 145.547302,317.029175 144.905914,314.821167 
	C143.409164,315.001190 143.191132,316.149658 142.866943,316.934540 
	C135.935516,333.715759 129.159439,350.557831 127.698479,368.927429 
	C126.490211,384.119751 130.037216,398.668884 133.950134,413.143066 
	C135.338577,418.278961 136.969955,423.349365 138.500671,428.446564 
	C140.294388,434.419525 139.035904,438.229248 134.737198,439.796143 
	C130.575790,441.313019 126.743118,438.853363 124.911415,433.173401 
	C119.235626,415.573456 114.231697,397.804626 113.109825,379.217987 
	C112.129074,362.969360 115.844017,347.472443 121.367165,332.377136 
	C125.484756,321.123352 129.455048,309.753204 134.574081,298.947998 
	C138.720764,290.195190 139.265564,281.655884 137.498703,272.471039 
	C136.211365,265.778931 135.628876,258.977539 135.613876,252.133057 
	C135.601425,246.459229 134.539551,245.874268 129.515213,248.369675 
	C110.131073,257.997040 100.459991,274.563904 96.374672,295.019684 
	C94.053139,306.643982 93.329987,318.434937 93.348213,330.275360 
	C93.352570,333.108276 93.394806,335.942383 93.330315,338.773895 
	C93.213852,343.887817 90.799629,346.931976 86.715599,347.229126 
	C82.601677,347.528381 79.147514,344.303436 78.945816,339.217468 
	C78.695251,332.899170 78.777290,326.550629 79.068748,320.231445 
	C79.690216,306.757233 81.106300,293.399628 85.166435,280.421051 
	C92.518921,256.918060 107.594025,240.663544 130.615738,232.009323 
	C134.485352,230.554672 136.290009,228.398010 136.602280,224.529419 
	C137.125992,218.041565 138.529358,211.727661 140.451889,205.519806 
	C141.182236,203.161499 140.760452,201.540405 138.834030,199.448242 
	C127.895538,187.568771 116.786507,175.822952 107.412743,162.583374 
	C96.757782,147.534241 93.589058,130.338074 92.773178,112.500175 
	C92.377640,103.852158 92.639320,95.172371 92.669640,86.507202 
	C92.689850,80.731445 94.855202,77.904518 99.245056,77.693382 
	C103.857323,77.471550 106.869385,80.351654 107.108643,86.045395 
	C107.402229,93.032104 107.410713,100.047409 107.165230,107.037102 
	C106.361740,129.915192 112.916885,150.004105 128.931747,166.768005 
	C134.220078,172.303680 139.074020,178.253723 144.147766,183.995590 
	C145.022690,184.985703 145.901306,186.038162 147.430664,186.144073 
	C149.017303,185.693924 149.675278,184.238464 150.417587,182.998367 
	C159.354416,168.068802 172.674286,158.456436 188.398941,151.876099 
	C191.698730,150.495209 193.349976,148.746735 193.794968,145.039917 
	C194.739090,137.175278 197.964325,130.017090 201.838089,123.154846 
	C202.718094,121.595940 203.998001,120.188354 204.050858,117.876083 
	C199.210449,115.433067 194.298187,113.047920 189.473221,110.497604 
	C181.188858,106.118759 173.457886,101.009300 166.970108,94.093018 
	C160.653320,87.359001 158.774109,79.427055 159.818039,70.568054 
	C160.269485,66.736839 162.777878,64.474030 166.421005,64.149208 
	C170.193176,63.812878 172.667419,66.027855 173.733383,69.651100 
	C174.011185,70.595352 174.267151,71.655846 174.119537,72.598160 
	C172.872910,80.555916 177.288712,85.382233 183.171082,89.549950 
	C192.603943,96.233192 202.744873,101.544868 213.905518,105.654205 
z"/>
</svg>